<svg version="1.1" id="Layer_1" xmlns="http://www.w3.org/2000/svg" xmlns:xlink="http://www.w3.org/1999/xlink" x="0px" y="0px"
	 width="100%" viewBox="0 0 764 611" enable-background="new 0 0 764 611" xml:space="preserve">
<path fill="#000000" opacity="1.000000" stroke="none" 
	d="
M554.000000,612.000000 
	C369.333344,612.000000 185.166672,612.000000 1.000000,612.000000 
	C1.000000,408.333344 1.000000,204.666672 1.000000,1.000000 
	C255.666672,1.000000 510.333344,1.000000 765.000000,1.000000 
	C765.000000,204.666672 765.000000,408.333344 765.000000,612.000000 
	C694.833313,612.000000 624.666687,612.000000 554.000000,612.000000 
M299.671204,143.725815 
	C299.125916,143.136810 298.580658,142.547806 297.926300,141.253555 
	C292.932037,138.467239 288.225159,138.462448 284.490082,142.929626 
	C280.749054,147.403946 276.878448,152.617676 275.560883,158.106506 
	C272.049957,172.732605 269.541290,187.630630 267.337524,202.524628 
	C266.380920,208.989716 267.003113,215.716064 267.265533,222.309509 
	C267.315155,223.557175 269.049103,224.737808 270.369476,226.264526 
	C270.609283,226.478439 270.833344,226.707718 270.990143,227.672821 
	C272.068207,228.370956 273.062958,229.449966 274.237549,229.707016 
	C283.702393,231.778244 293.194946,232.577240 302.673767,229.687912 
	C304.078186,229.259827 305.522156,228.961700 306.947845,228.603455 
	C307.435883,229.328110 307.923889,230.052780 308.411926,230.777435 
	C298.199677,236.674744 288.351898,242.958481 281.402496,252.955841 
	C279.931763,253.755341 278.480560,248.747482 276.528351,253.415939 
	C265.424164,264.625702 257.776245,277.443665 258.659515,294.231201 
	C258.060699,294.237152 257.461884,294.243103 256.863037,294.249084 
	C255.631226,291.694214 254.399414,289.139374 253.167587,286.584503 
	C252.587494,286.656525 252.007385,286.728516 251.427292,286.800507 
	C251.427292,292.194794 251.308487,297.592194 251.448181,302.982849 
	C252.001907,324.350647 265.054962,338.508118 286.345947,340.932465 
	C293.870422,341.789276 301.484772,342.159515 308.906586,343.556702 
	C329.123749,347.362732 349.354218,346.059540 369.610596,344.424042 
	C370.441711,344.356995 371.203766,343.434845 372.800018,342.920929 
	C373.866791,342.948334 374.933594,342.975739 376.329895,343.500854 
	C377.267090,343.114197 378.204285,342.727539 379.903992,342.182037 
	C380.940491,342.147156 381.976959,342.112244 383.434509,342.681396 
	C385.271790,342.376709 387.109039,342.071991 389.687408,341.854126 
	C390.425415,341.775635 391.163422,341.697113 392.569000,341.809998 
	C393.362579,341.474182 394.156158,341.138336 395.692108,340.874237 
	C396.432373,340.807068 397.172638,340.739868 398.633911,340.858459 
	C399.737823,340.502960 400.841736,340.147461 402.606049,339.860168 
	C403.043335,339.801666 403.480652,339.743195 404.774902,339.872437 
	C410.462372,339.512024 416.153992,339.204956 421.835114,338.763000 
	C423.883667,338.603638 425.907013,338.120483 428.769867,337.873657 
	C430.148254,337.788361 431.526672,337.703033 433.745331,337.816193 
	C436.192444,337.509949 438.736511,337.529938 441.068726,336.837006 
	C448.410034,334.655914 455.671814,332.207092 463.547668,329.832977 
	C464.014923,329.521088 464.482178,329.209167 465.694336,328.910767 
	C468.785797,327.104858 471.810730,325.987854 474.806030,329.197876 
	C475.239349,329.662201 476.312195,329.529816 477.730347,329.832123 
	C478.169037,329.820221 478.607697,329.808319 479.401459,330.264618 
	C480.251251,330.108704 481.101074,329.952820 482.692169,329.887177 
	C483.432434,329.817017 484.172668,329.746887 485.670837,329.838928 
	C500.429260,326.245941 509.750366,316.624146 512.623169,302.184204 
	C517.034607,280.010529 509.626312,260.221741 497.258911,242.099548 
	C491.113617,233.094803 482.372742,227.169952 471.738037,223.526169 
	C474.040466,221.034378 476.140503,219.159668 477.737000,216.925156 
	C479.429749,214.555954 480.644135,211.844940 482.259094,208.938248 
	C478.016754,207.284851 474.192017,206.197662 470.773590,204.356140 
	C466.819702,202.226151 465.612396,198.392014 466.313171,193.480942 
	C466.574371,193.009796 466.835571,192.538651 467.778534,191.927490 
	C473.056549,183.209427 474.018372,173.862396 471.411591,164.173599 
	C471.084106,162.956436 468.832001,161.341263 467.596863,161.442230 
	C462.166473,161.886230 456.797913,163.040222 451.373199,163.622406 
	C449.200226,163.855606 446.874329,163.547592 444.731903,163.021912 
	C437.377838,161.217392 430.063049,159.247925 422.761475,157.238937 
	C421.431885,156.873108 419.954742,156.302002 419.022583,155.355835 
	C413.613922,149.865845 407.451965,148.322510 400.265625,151.005203 
	C398.462097,148.716324 396.707123,146.302185 394.762177,144.052231 
	C384.860077,132.597183 377.381958,130.143768 366.089996,139.748230 
	C365.836548,139.963806 365.576538,140.172470 365.310699,140.372543 
	C361.240570,143.435562 357.120117,144.068008 351.842499,142.988785 
	C343.630585,141.309509 335.111328,140.616776 326.716125,140.567673 
	C322.520691,140.543137 318.311493,142.869324 314.171722,144.157227 
	C314.171722,144.157227 314.165497,144.224884 313.590149,143.822327 
	C313.061798,144.148026 312.533478,144.473724 311.254211,145.065826 
	C310.003387,145.486008 308.752594,145.906189 306.839172,145.737030 
	C304.960175,145.032837 303.081146,144.328629 300.661316,143.461029 
	C300.529388,143.595413 300.397430,143.729782 299.671204,143.725815 
M493.322815,391.951965 
	C486.122314,395.020081 484.418976,401.553925 484.233551,408.195740 
	C484.006897,416.313690 487.355988,423.269531 495.160126,426.747681 
	C502.721680,430.117645 510.655609,430.082336 518.374634,426.897369 
	C519.780029,426.317505 521.194092,425.070404 521.961060,423.756073 
	C524.614502,419.209198 522.890625,405.889282 519.346130,401.785309 
	C523.099792,394.325806 521.471008,390.511902 513.463684,388.011444 
	C506.145294,385.726105 497.126831,387.608887 494.000336,392.001831 
	C494.000336,392.001831 494.061066,392.051758 493.322815,391.951965 
M384.709320,393.584015 
	C383.826843,394.390289 382.944397,395.196594 381.328857,396.034729 
	C375.217163,401.358917 376.353394,408.412354 377.704346,414.889740 
	C379.641571,424.178009 387.818512,429.143402 399.589874,428.932465 
	C412.525330,428.700684 416.200775,426.068726 415.020966,413.864532 
	C414.604279,409.554352 416.283966,404.711151 411.134186,402.177002 
	C415.364410,394.732361 413.621826,390.119202 405.970459,388.202881 
	C403.267212,387.525879 400.275421,386.722595 397.664398,387.238159 
	C393.093719,388.140625 387.474823,387.397186 384.709320,393.584015 
M576.805176,410.816437 
	C578.476257,394.573944 566.711121,386.064148 551.951355,389.492767 
	C542.242126,391.748199 537.498657,400.309906 538.866577,411.681671 
	C539.920410,420.442322 546.870911,426.899628 555.618835,427.245148 
	C568.050842,427.736176 574.447266,423.001770 576.805176,410.816437 
M307.572723,389.931122 
	C302.988922,389.807587 298.165527,388.704437 293.868927,389.755249 
	C283.472687,392.297821 278.570526,403.123260 281.815826,414.575409 
	C284.652618,424.586029 295.277496,429.810303 306.344727,426.636353 
	C313.643768,424.543030 318.329407,418.882233 319.180420,411.129272 
	C320.254700,401.342499 316.774139,394.644012 307.572723,389.931122 
M464.274231,394.238983 
	C458.427063,388.530029 451.299744,387.635803 443.892242,389.621185 
	C433.569489,392.387939 428.540955,403.183777 431.808960,414.514343 
	C434.724121,424.621521 445.183533,429.809357 456.259460,426.641724 
	C469.267517,422.921509 473.480133,407.131317 464.274231,394.238983 
M262.901581,425.631653 
	C265.972748,419.907440 264.774506,417.774933 258.472565,417.753082 
	C256.142609,417.744995 253.750885,418.054047 251.508087,417.609375 
	C250.345062,417.378784 249.445633,415.818634 248.427124,414.859131 
	C249.393661,414.015320 250.260971,412.645142 251.347961,412.440216 
	C253.438690,412.046082 255.657150,412.231934 257.816528,412.322723 
	C260.919159,412.453186 262.443512,411.119202 262.521179,407.952515 
	C262.601166,404.691650 261.124695,403.472687 257.941772,403.748840 
	C255.794891,403.935120 253.544586,404.102234 251.482895,403.641235 
	C250.318024,403.380798 249.441132,401.832336 248.434509,400.864014 
	C249.411774,400.035248 250.321136,398.612122 251.379288,398.491211 
	C254.337662,398.153290 257.501007,398.887848 260.297821,398.136200 
	C261.901978,397.705109 263.653290,395.374512 264.078064,393.597748 
	C264.658905,391.168213 263.021881,389.746826 260.200256,389.818146 
	C254.545288,389.961182 248.884018,389.896423 243.225784,389.856445 
	C239.303375,389.828735 237.215424,391.949188 237.138519,395.620880 
	C236.964340,403.937561 236.963379,412.263580 237.157318,420.579620 
	C237.242828,424.246063 239.347946,426.371552 243.277435,426.295349 
	C249.591125,426.172852 255.905853,426.105225 262.901581,425.631653 
M195.893845,398.439758 
	C196.513916,399.946411 197.615891,401.436157 197.669510,402.962708 
	C197.885376,409.108154 197.656647,415.268280 197.826355,421.416534 
	C197.965973,426.473969 201.721893,426.156525 205.362579,426.351685 
	C209.505447,426.573730 209.383362,424.111511 209.335648,421.251709 
	C209.246887,415.931915 209.506638,410.600189 209.251480,405.291168 
	C209.033981,400.765656 209.299408,397.398010 215.384552,398.118896 
	C216.463577,398.246674 218.788254,395.540497 218.877579,394.043915 
	C218.956863,392.715759 216.784897,390.094757 215.511444,390.033813 
	C207.713928,389.660583 199.885559,389.733643 192.077408,389.976898 
	C190.785309,390.017181 188.941391,391.375732 188.439209,392.578705 
	C187.898773,393.873352 188.093307,396.596436 188.933746,397.107880 
	C190.585220,398.112823 192.906189,398.017609 195.893845,398.439758 
M345.898468,426.283569 
	C350.386810,426.282227 354.876190,426.221741 359.363190,426.299255 
	C362.637207,426.355804 363.819275,424.561798 363.790894,421.623932 
	C363.763214,418.759308 362.404022,417.399231 359.397491,417.711884 
	C357.588531,417.899994 355.721161,417.560577 353.920013,417.782440 
	C350.089172,418.254333 349.058105,416.576691 349.206665,412.946533 
	C349.457916,406.806519 349.349548,400.646362 349.224396,394.498077 
	C349.125305,389.632294 345.539703,389.973083 342.089569,389.783508 
	C338.276520,389.573975 337.762817,391.495605 337.823303,394.664856 
	C337.978729,402.807434 337.818054,410.955475 337.895416,419.100281 
	C337.948242,424.662201 339.276825,425.913330 345.898468,426.283569 
z"/>
<path fill="#FCFCFC" opacity="1.000000" stroke="none" 
	d="
M383.013489,342.077362 
	C381.976959,342.112244 380.940491,342.147156 379.192169,342.086761 
	C377.653687,342.328735 376.827026,342.665955 376.000366,343.003174 
	C374.933594,342.975739 373.866791,342.948334 372.079224,342.777496 
	C366.547058,343.010345 361.741577,343.507935 356.923309,343.740967 
	C340.122803,344.553467 323.338043,345.248871 306.754669,341.197510 
	C302.971985,340.273407 298.969604,340.078766 295.052429,339.902954 
	C271.616058,338.850983 262.971466,332.649384 258.253601,311.935791 
	C257.742645,309.692535 258.184692,307.232239 258.184692,304.652313 
	C260.026459,305.221375 261.376251,305.638458 263.446045,306.278015 
	C263.850128,296.925049 263.131348,287.779846 268.344391,279.726257 
	C269.404053,282.908752 270.033112,286.081970 270.305756,289.285492 
	C271.289124,300.837952 274.267395,311.811279 279.601471,322.523224 
	C284.365875,327.467133 288.933136,326.213104 290.807220,319.292114 
	C293.793732,308.263153 296.269287,297.095825 299.223755,285.771973 
	C302.399933,281.106720 305.313232,276.656494 308.543793,272.106079 
	C317.289581,266.583069 325.718079,261.160278 334.531219,255.624603 
	C342.253021,255.119202 348.157745,259.855072 347.719910,267.367615 
	C347.395111,272.941315 344.961884,278.432556 343.166077,283.860718 
	C342.422363,286.108551 340.891266,288.095886 339.184540,291.159882 
	C343.524841,290.738373 346.749207,290.425232 350.284515,290.114136 
	C351.060608,289.723541 351.525757,289.330902 352.414429,288.997742 
	C360.231903,287.655945 367.625854,286.254700 375.358185,284.862793 
	C377.126587,284.220856 378.556580,283.569641 380.331818,282.924988 
	C382.269257,281.835052 383.861450,280.738525 385.469574,279.631592 
	C385.485474,279.621155 385.523804,279.619904 385.847290,279.503265 
	C392.751526,274.536072 393.060608,268.110962 390.429932,261.200714 
	C388.680389,256.604980 387.965851,252.293365 391.629578,248.001953 
	C395.634094,246.257629 399.308868,244.600693 403.039398,243.080566 
	C405.674713,242.006714 408.385529,241.118256 411.353485,240.008606 
	C411.129425,237.631638 410.911255,235.268021 410.032288,233.182968 
	C408.599365,229.783890 406.735077,226.566681 404.778870,222.736374 
	C410.066589,221.915848 415.249359,223.237228 417.679291,218.263779 
	C414.457184,215.811432 411.411438,213.493301 408.129486,210.995422 
	C407.366608,215.747345 404.141693,217.051910 400.077576,215.562653 
	C398.069641,214.826843 395.831573,213.026703 394.980743,211.131958 
	C392.029694,204.560242 389.641144,197.735931 387.211823,190.857574 
	C387.590179,190.480255 387.810760,190.269302 388.409180,190.108246 
	C392.183563,186.595947 395.595581,183.049942 397.934235,180.619431 
	C399.183411,183.389664 400.960846,187.331360 402.987122,191.572784 
	C406.507599,192.231308 409.779236,192.590118 413.125244,193.362335 
	C413.404846,196.449448 413.610046,199.123138 413.443787,201.898438 
	C406.162598,204.159805 403.643524,202.436935 404.266449,195.674255 
	C402.566589,195.674255 400.894562,195.674255 399.029510,195.674255 
	C403.901581,205.809708 405.989471,206.938522 414.807159,204.506134 
	C420.696594,211.085144 423.406311,211.276154 436.182434,205.727814 
	C434.232971,204.403168 432.555573,203.263382 430.088654,201.587143 
	C430.879120,206.990326 427.813202,206.948898 424.666199,207.218430 
	C421.026520,207.530151 418.664154,205.922287 416.890533,202.639587 
	C418.433228,199.913269 419.968170,197.564987 421.755524,194.830536 
	C418.299286,194.116974 415.638824,193.567734 413.006683,192.636017 
	C415.593170,187.893799 411.578278,184.817474 410.822388,180.748993 
	C407.903503,176.337738 404.014557,175.198166 399.084076,176.863174 
	C399.768036,174.591568 400.320526,172.756699 400.950470,170.580444 
	C406.852020,165.743195 411.684967,160.910187 407.041656,152.790680 
	C406.965820,152.658051 407.335938,152.270386 407.712219,151.646378 
	C409.955231,152.454788 413.180115,152.601440 414.418152,154.244843 
	C418.986084,160.308472 425.785278,159.096420 431.783691,160.521515 
	C433.393768,160.904053 435.200470,160.979202 436.565002,161.788666 
	C444.077698,166.245346 451.847412,166.955856 460.044373,164.311203 
	C460.153900,165.244553 460.217651,165.777695 460.023560,166.564453 
	C453.064941,168.888336 453.388458,169.009460 456.382263,174.913803 
	C458.387115,178.867661 458.831940,183.612534 459.763794,188.136871 
	C459.825317,188.910461 460.097870,189.550629 460.570129,190.483536 
	C461.797516,190.943283 462.825256,191.110291 463.965546,191.641846 
	C464.406616,192.695908 464.735107,193.385422 464.858856,194.403015 
	C464.287079,196.466400 463.919983,198.201706 463.352325,200.210770 
	C466.122406,205.203033 469.093079,209.921509 472.580780,215.461273 
	C468.679352,217.578033 464.380341,220.353439 459.737183,222.313873 
	C454.337341,224.593765 453.807465,225.272095 456.577393,230.594513 
	C457.266510,231.918686 458.056427,233.193497 458.850067,234.459610 
	C462.816193,240.786789 467.371643,246.820648 470.661285,253.480530 
	C478.424347,269.196808 478.753632,285.182739 470.184967,300.815491 
	C466.559540,307.429779 463.789673,308.793274 456.719849,306.165863 
	C449.622406,303.528168 442.984619,299.653595 435.986572,296.069611 
	C428.359131,290.030365 422.314392,283.046539 418.064148,274.573364 
	C415.761719,269.983337 413.519379,265.363190 411.168243,260.388611 
	C409.776581,256.227631 408.466644,252.434647 407.156677,248.641678 
	C406.704742,248.766632 406.252777,248.891602 405.800842,249.016556 
	C404.024353,260.928528 404.505432,272.673767 408.103699,284.359741 
	C414.029388,303.604614 427.617767,315.074615 446.028229,322.192108 
	C444.037231,323.296631 442.262909,323.947510 440.430786,324.274780 
	C429.459198,326.234528 418.331451,327.546265 407.544403,330.232910 
	C400.421265,332.006989 393.781219,335.721069 386.604462,338.702637 
	C385.193848,339.918274 384.103668,340.997833 383.013489,342.077362 
M428.491943,197.948898 
	C429.619049,197.640656 430.746124,197.332413 432.466827,197.364761 
	C436.258545,195.526489 440.331238,194.084167 443.720825,191.679123 
	C445.360260,190.515869 445.716858,187.544571 446.654297,185.391891 
	C444.432068,184.623138 442.209869,183.854370 439.591675,182.676407 
	C438.734833,182.825684 437.878021,182.974976 436.299194,183.144150 
	C434.562408,183.798553 432.825592,184.452957 430.418671,185.236877 
	C428.749908,186.805664 426.845917,188.191986 425.459320,189.979630 
	C422.147552,194.249222 422.684418,195.784698 428.491943,197.948898 
z"/>
<path fill="#FCFCFC" opacity="1.000000" stroke="none" 
	d="
M307.501770,146.326355 
	C308.752594,145.906189 310.003387,145.486008 311.711182,145.179108 
	C312.833923,144.936554 313.499695,144.580719 314.165497,144.224884 
	C314.165497,144.224884 314.171722,144.157227 314.443420,144.314941 
	C319.379181,143.748352 324.043213,143.024048 328.793182,142.631531 
	C328.079498,144.157928 327.321075,145.382660 326.473724,146.542374 
	C319.964935,155.450363 323.787476,167.948334 334.127991,170.987122 
	C341.617188,173.187973 348.309723,176.599548 353.867615,182.621460 
	C354.774719,186.971558 355.561371,190.980637 356.171387,195.248688 
	C354.568787,203.260025 347.622223,204.440689 341.210297,207.162659 
	C357.950592,213.473114 367.715698,222.342224 354.864624,240.888245 
	C355.446106,241.076843 356.027588,241.265442 356.609070,241.454041 
	C360.848358,239.724960 365.087616,237.995895 369.565704,236.169418 
	C369.752594,238.185638 369.931854,240.119461 370.056030,242.383179 
	C369.791565,243.340988 369.582123,243.968872 369.065125,244.693787 
	C365.719421,247.934433 362.480255,250.913223 359.717224,254.282486 
	C358.016846,256.355957 357.043762,259.025879 355.539948,261.153809 
	C352.508820,258.738647 349.681824,256.597717 346.636780,254.168777 
	C342.287872,253.945007 338.157074,254.009216 333.654968,254.076645 
	C328.226593,256.565369 323.022339,258.796631 318.156830,261.613068 
	C313.901733,264.076172 310.027618,267.197449 305.734070,269.798309 
	C303.584534,265.833435 300.754059,262.281891 299.974579,258.326202 
	C298.143921,249.035843 301.125275,240.852936 307.311340,233.566620 
	C313.650940,226.099457 313.172668,220.885086 306.757385,213.835724 
	C310.561646,213.170425 314.004395,212.776749 317.447144,212.383072 
	C317.413879,211.971909 317.380615,211.560745 317.347382,211.149582 
	C313.213287,211.149582 309.079193,211.149582 304.533661,211.099945 
	C298.043640,209.117691 291.674835,207.783279 285.995361,205.027969 
	C282.591919,203.376816 279.953278,199.591827 283.394989,194.949661 
	C285.238922,195.080994 286.879730,195.026840 288.204346,195.647491 
	C291.614471,197.245300 294.697327,199.833450 298.244537,200.793915 
	C310.543274,204.124008 322.057037,201.243744 332.585327,194.645386 
	C336.141388,192.416733 338.946838,188.949875 341.963593,185.917831 
	C343.537292,184.336197 344.824707,182.469727 346.514252,180.397263 
	C344.400970,179.056335 342.066498,177.575073 338.611786,175.382996 
	C341.696198,182.159256 341.062408,185.214081 335.990875,189.355621 
	C326.963379,196.727722 316.515717,199.906982 304.879395,199.299210 
	C293.648529,198.712662 288.872955,195.250656 285.351440,184.615570 
	C286.234406,181.957245 287.099274,179.674118 288.380249,177.421066 
	C291.057953,177.728790 293.319611,178.006424 294.306000,178.127502 
	C297.547607,175.096542 299.955078,172.504761 302.703308,170.347031 
	C308.372498,165.895950 309.028961,159.846893 304.090576,154.882935 
	C304.042999,154.956848 304.190582,154.861267 304.056335,154.569977 
	C302.762970,153.426437 301.603882,152.574203 300.452972,151.727997 
	C301.114502,150.739594 301.653381,149.934418 302.143921,149.110168 
	C302.095612,149.091095 302.095581,149.195023 302.434814,149.165863 
	C304.349976,148.199921 305.925873,147.263138 307.501770,146.326355 
z"/>
<path fill="#717171" opacity="1.000000" stroke="none" 
	d="
M283.047852,195.071564 
	C279.953278,199.591827 282.591919,203.376816 285.995361,205.027969 
	C291.674835,207.783279 298.043640,209.117691 304.546082,211.410400 
	C305.445251,212.549454 305.920563,213.328384 306.395874,214.107330 
	C313.172668,220.885086 313.650940,226.099457 307.311340,233.566620 
	C301.125275,240.852936 298.143921,249.035843 299.974579,258.326202 
	C300.754059,262.281891 303.584534,265.833435 305.753052,270.025696 
	C306.023193,270.482727 306.095306,270.933350 305.814392,271.122253 
	C300.299927,279.331787 294.127960,286.912445 290.101349,295.499084 
	C286.213379,303.790192 284.537689,313.118652 281.491852,322.008423 
	C280.561554,322.072266 280.029541,322.119110 279.497559,322.165955 
	C274.267395,311.811279 271.289124,300.837952 270.305756,289.285492 
	C270.033112,286.081970 269.404053,282.908752 268.344391,279.726257 
	C263.131348,287.779846 263.850128,296.925049 263.446045,306.278015 
	C261.376251,305.638458 260.026459,305.221375 258.184692,304.652313 
	C258.184692,307.232239 257.742645,309.692535 258.253601,311.935791 
	C262.971466,332.649384 271.616058,338.850983 295.052429,339.902954 
	C298.969604,340.078766 302.971985,340.273407 306.754669,341.197510 
	C323.338043,345.248871 340.122803,344.553467 356.923309,343.740967 
	C361.741577,343.507935 366.547058,343.010345 371.678192,342.772583 
	C371.203766,343.434845 370.441711,344.356995 369.610596,344.424042 
	C349.354218,346.059540 329.123749,347.362732 308.906586,343.556702 
	C301.484772,342.159515 293.870422,341.789276 286.345947,340.932465 
	C265.054962,338.508118 252.001907,324.350647 251.448181,302.982849 
	C251.308487,297.592194 251.427292,292.194794 251.427292,286.800507 
	C252.007385,286.728516 252.587494,286.656525 253.167587,286.584503 
	C254.399414,289.139374 255.631226,291.694214 256.863037,294.249084 
	C257.461884,294.243103 258.060699,294.237152 258.659515,294.231201 
	C257.776245,277.443665 265.424164,264.625702 277.020996,253.425873 
	C277.015900,256.702576 276.518127,259.969299 276.020386,263.236023 
	C276.442841,263.376526 276.865326,263.516998 277.287811,263.657471 
	C278.889832,260.120972 280.491852,256.584503 282.093872,253.048035 
	C288.351898,242.958481 298.199677,236.674744 308.411926,230.777435 
	C307.923889,230.052780 307.435883,229.328110 306.947845,228.603455 
	C305.522156,228.961700 304.078186,229.259827 302.673767,229.687912 
	C293.194946,232.577240 283.702393,231.778244 274.237549,229.707016 
	C273.062958,229.449966 272.068207,228.370956 271.394470,227.261780 
	C281.172241,230.348862 290.628998,229.896423 300.129974,227.737885 
	C297.384827,227.000198 294.588989,227.019318 291.863403,226.591263 
	C289.087769,226.155319 286.268402,225.566147 283.665466,224.542511 
	C275.626648,221.381210 273.901886,218.119278 274.648468,209.599335 
	C275.256378,202.661728 275.425537,195.686615 275.911774,188.736725 
	C276.048248,186.786346 276.617737,184.866287 277.285950,182.945557 
	C278.730957,183.463547 279.878662,183.968307 280.623413,184.620712 
	C277.369415,190.062195 278.241425,192.620728 282.984070,193.237976 
	C283.006683,194.093796 283.027252,194.582672 283.047852,195.071564 
z"/>
<path fill="#717171" opacity="1.000000" stroke="none" 
	d="
M386.924896,338.566559 
	C393.781219,335.721069 400.421265,332.006989 407.544403,330.232910 
	C418.331451,327.546265 429.459198,326.234528 440.430786,324.274780 
	C442.262909,323.947510 444.037231,323.296631 446.028229,322.192108 
	C427.617767,315.074615 414.029388,303.604614 408.103699,284.359741 
	C404.505432,272.673767 404.024353,260.928528 405.800842,249.016556 
	C406.252777,248.891602 406.704742,248.766632 407.156677,248.641678 
	C408.466644,252.434647 409.776581,256.227631 410.975708,260.718750 
	C407.997650,265.213684 409.394623,268.638245 411.815979,272.374512 
	C418.873291,295.154633 434.102783,309.358124 456.118591,316.372925 
	C464.826935,319.147675 473.544037,318.448792 481.545197,313.312042 
	C495.299652,304.481659 503.728821,283.771240 500.338379,267.328705 
	C497.545197,253.782928 490.681427,242.427872 482.192352,232.064377 
	C484.097198,232.888245 485.788422,233.548874 487.128784,234.640366 
	C495.033569,241.077591 500.301178,249.441879 504.186920,258.724548 
	C509.552399,271.542236 512.798340,285.008911 510.962433,298.776184 
	C509.169830,312.219208 501.143921,321.877136 488.289978,327.125702 
	C487.027527,327.641144 486.032227,328.810760 484.912903,329.676758 
	C484.172668,329.746887 483.432434,329.817017 482.137390,329.622070 
	C480.737183,329.503479 479.891785,329.649963 479.046387,329.796417 
	C478.607697,329.808319 478.169037,329.820221 477.321106,329.436951 
	C473.377930,324.329346 468.804474,322.733490 462.095459,324.676788 
	C464.449432,324.915924 465.813110,325.054443 467.355591,325.211121 
	C466.453918,326.592438 465.701660,327.744843 464.949432,328.897278 
	C464.482178,329.209167 464.014923,329.521088 463.035980,329.612701 
	C453.223267,331.614990 443.916840,333.815613 434.632751,336.106812 
	C433.972778,336.269684 433.477142,337.098541 432.905060,337.617737 
	C431.526672,337.703033 430.148254,337.788361 428.042480,337.570740 
	C422.350586,337.185242 417.362305,336.779541 412.430725,337.143158 
	C409.546326,337.355835 406.752502,338.796478 403.917938,339.684692 
	C403.480652,339.743195 403.043335,339.801666 402.049377,339.596802 
	C400.299438,339.779846 399.106171,340.226288 397.912903,340.672668 
	C397.172638,340.739868 396.432373,340.807068 395.124268,340.617981 
	C393.671387,340.780701 392.786407,341.199646 391.901428,341.618591 
	C391.163422,341.697113 390.425415,341.775635 389.101196,341.559875 
	C387.984955,340.365936 387.454926,339.466248 386.924896,338.566559 
M453.935120,323.974091 
	C455.748444,324.171936 457.561768,324.369781 459.375092,324.567627 
	C459.382355,324.189178 459.389587,323.810760 459.396820,323.432312 
	C456.886688,323.036835 454.376526,322.641327 451.866394,322.245819 
	C451.798706,322.482819 451.731049,322.719849 451.663361,322.956879 
	C452.182434,323.270355 452.701508,323.583862 453.935120,323.974091 
z"/>
<path fill="#C6C8CB" opacity="1.000000" stroke="none" 
	d="
M576.772949,411.213898 
	C574.447266,423.001770 568.050842,427.736176 555.618835,427.245148 
	C546.870911,426.899628 539.920410,420.442322 538.866577,411.681671 
	C537.498657,400.309906 542.242126,391.748199 551.951355,389.492767 
	C566.711121,386.064148 578.476257,394.573944 576.772949,411.213898 
M552.392639,400.041473 
	C549.508728,404.433655 549.295715,409.353302 551.360291,413.784882 
	C552.393982,416.003693 555.730652,418.479492 557.973877,418.431213 
	C560.221497,418.382812 563.192932,415.753510 564.393372,413.485870 
	C565.586731,411.231628 565.318542,407.990173 565.081909,405.233917 
	C564.463440,398.030243 559.145752,395.605774 552.392639,400.041473 
z"/>
<path fill="#C6C8CB" opacity="1.000000" stroke="none" 
	d="
M307.933258,390.054291 
	C316.774139,394.644012 320.254700,401.342499 319.180420,411.129272 
	C318.329407,418.882233 313.643768,424.543030 306.344727,426.636353 
	C295.277496,429.810303 284.652618,424.586029 281.815826,414.575409 
	C278.570526,403.123260 283.472687,392.297821 293.868927,389.755249 
	C298.165527,388.704437 302.988922,389.807587 307.933258,390.054291 
M293.401215,413.793396 
	C294.884827,417.174255 297.371307,419.238251 301.151703,418.618469 
	C305.122314,417.967529 307.114014,415.034149 307.373566,411.257477 
	C307.574097,408.339294 307.850250,404.972229 306.627014,402.542786 
	C305.491058,400.286835 302.422363,397.683044 300.190338,397.669952 
	C297.938049,397.656708 294.497894,400.209137 293.684906,402.414276 
	C292.514465,405.588898 293.248566,409.465759 293.401215,413.793396 
z"/>
<path fill="#C8CACC" opacity="1.000000" stroke="none" 
	d="
M464.520630,394.495911 
	C473.480133,407.131317 469.267517,422.921509 456.259460,426.641724 
	C445.183533,429.809357 434.724121,424.621521 431.808960,414.514343 
	C428.540955,403.183777 433.569489,392.387939 443.892242,389.621185 
	C451.299744,387.635803 458.427063,388.530029 464.520630,394.495911 
M444.930542,416.073975 
	C444.930542,416.073975 444.952118,416.132477 445.104095,416.856506 
	C449.873932,420.203064 454.139862,419.739197 456.433472,415.248871 
	C458.836121,410.545135 458.874634,405.523193 456.423309,400.826324 
	C453.900269,395.991943 447.773590,395.665985 444.338287,399.934845 
	C441.157501,403.887421 441.420563,411.768921 444.930542,416.073975 
z"/>
<path fill="#C6C8CB" opacity="1.000000" stroke="none" 
	d="
M262.560852,425.823059 
	C255.905853,426.105225 249.591125,426.172852 243.277435,426.295349 
	C239.347946,426.371552 237.242828,424.246063 237.157318,420.579620 
	C236.963379,412.263580 236.964340,403.937561 237.138519,395.620880 
	C237.215424,391.949188 239.303375,389.828735 243.225784,389.856445 
	C248.884018,389.896423 254.545288,389.961182 260.200256,389.818146 
	C263.021881,389.746826 264.658905,391.168213 264.078064,393.597748 
	C263.653290,395.374512 261.901978,397.705109 260.297821,398.136200 
	C257.501007,398.887848 254.337662,398.153290 251.379288,398.491211 
	C250.321136,398.612122 249.411774,400.035248 248.434509,400.864014 
	C249.441132,401.832336 250.318024,403.380798 251.482895,403.641235 
	C253.544586,404.102234 255.794891,403.935120 257.941772,403.748840 
	C261.124695,403.472687 262.601166,404.691650 262.521179,407.952515 
	C262.443512,411.119202 260.919159,412.453186 257.816528,412.322723 
	C255.657150,412.231934 253.438690,412.046082 251.347961,412.440216 
	C250.260971,412.645142 249.393661,414.015320 248.427124,414.859131 
	C249.445633,415.818634 250.345062,417.378784 251.508087,417.609375 
	C253.750885,418.054047 256.142609,417.744995 258.472565,417.753082 
	C264.774506,417.774933 265.972748,419.907440 262.560852,425.823059 
z"/>
<path fill="#C8CACC" opacity="1.000000" stroke="none" 
	d="
M382.061951,396.002869 
	C382.944397,395.196594 383.826843,394.390289 385.220337,393.282715 
	C388.469727,391.810333 391.111145,390.095612 393.967499,389.586334 
	C399.196106,388.654022 404.783081,387.952026 409.265411,391.633575 
	C410.589050,392.720734 410.432434,395.610107 410.954163,397.673584 
	C409.265076,397.957703 407.568298,398.498138 405.889160,398.447937 
	C404.443420,398.404755 403.043304,397.513672 401.578857,397.299744 
	C395.597565,396.426208 390.491455,400.326843 389.860992,406.136841 
	C389.145111,412.733917 392.550659,417.636322 398.418152,417.780792 
	C399.806793,417.815002 401.240875,416.004028 402.654022,415.041809 
	C401.523132,414.052002 400.446655,412.298157 399.251373,412.213043 
	C395.390839,411.938293 394.973816,409.109070 396.073883,407.038116 
	C396.911804,405.460663 399.957306,404.063843 401.855438,404.252136 
	C405.580017,404.621582 411.070923,401.305389 412.788269,406.941956 
	C416.990875,420.735352 412.626770,426.181824 398.266388,426.001129 
	C396.130768,425.974213 393.931885,425.751007 391.879669,425.189514 
	C380.945007,422.197815 375.718048,412.036102 379.583282,401.393463 
	C380.256134,399.540924 381.228119,397.796997 382.061951,396.002869 
z"/>
<path fill="#C6C8CB" opacity="1.000000" stroke="none" 
	d="
M195.421997,398.408661 
	C192.906189,398.017609 190.585220,398.112823 188.933746,397.107880 
	C188.093307,396.596436 187.898773,393.873352 188.439209,392.578705 
	C188.941391,391.375732 190.785309,390.017181 192.077408,389.976898 
	C199.885559,389.733643 207.713928,389.660583 215.511444,390.033813 
	C216.784897,390.094757 218.956863,392.715759 218.877579,394.043915 
	C218.788254,395.540497 216.463577,398.246674 215.384552,398.118896 
	C209.299408,397.398010 209.033981,400.765656 209.251480,405.291168 
	C209.506638,410.600189 209.246887,415.931915 209.335648,421.251709 
	C209.383362,424.111511 209.505447,426.573730 205.362579,426.351685 
	C201.721893,426.156525 197.965973,426.473969 197.826355,421.416534 
	C197.656647,415.268280 197.885376,409.108154 197.669510,402.962708 
	C197.615891,401.436157 196.513916,399.946411 195.421997,398.408661 
z"/>
<path fill="#585859" opacity="1.000000" stroke="none" 
	d="
M328.707275,142.299728 
	C324.043213,143.024048 319.379181,143.748352 314.411804,144.302460 
	C318.311493,142.869324 322.520691,140.543137 326.716125,140.567673 
	C335.111328,140.616776 343.630585,141.309509 351.842499,142.988785 
	C357.120117,144.068008 361.240570,143.435562 365.310699,140.372543 
	C365.576538,140.172470 365.836548,139.963806 366.089996,139.748230 
	C377.381958,130.143768 384.860077,132.597183 394.762177,144.052231 
	C396.707123,146.302185 398.462097,148.716324 400.265625,151.005203 
	C407.451965,148.322510 413.613922,149.865845 419.022583,155.355835 
	C419.954742,156.302002 421.431885,156.873108 422.761475,157.238937 
	C430.063049,159.247925 437.377838,161.217392 444.731903,163.021912 
	C446.874329,163.547592 449.200226,163.855606 451.373199,163.622406 
	C456.797913,163.040222 462.166473,161.886230 467.596863,161.442230 
	C468.832001,161.341263 471.084106,162.956436 471.411591,164.173599 
	C474.018372,173.862396 473.056549,183.209427 467.386536,191.616577 
	C468.365204,185.012115 470.593658,178.760345 470.902832,172.415085 
	C471.352173,163.193375 469.520416,162.143234 460.418915,163.646790 
	C460.268341,163.671661 460.138214,163.820175 459.998566,163.911011 
	C451.847412,166.955856 444.077698,166.245346 436.565002,161.788666 
	C435.200470,160.979202 433.393768,160.904053 431.783691,160.521515 
	C425.785278,159.096420 418.986084,160.308472 414.418152,154.244843 
	C413.180115,152.601440 409.955231,152.454788 407.712219,151.646378 
	C407.335938,152.270386 406.965820,152.658051 407.041656,152.790680 
	C411.684967,160.910187 406.852020,165.743195 400.542175,170.555450 
	C399.783752,170.878967 399.511108,170.886108 399.393799,170.540054 
	C399.312073,168.472473 399.074982,166.758102 399.158936,164.778015 
	C400.220154,159.911880 401.041748,155.282700 397.592682,151.300461 
	C394.556732,147.795197 391.664886,144.131287 388.345856,140.912292 
	C381.981140,134.739410 378.243378,134.718643 370.700134,139.491882 
	C366.323517,142.261307 361.590302,144.467194 356.639893,146.894424 
	C348.964142,143.544067 341.412323,141.974762 333.058960,143.284851 
	C331.377808,142.782867 330.042542,142.541290 328.707275,142.299728 
z"/>
<path fill="#C8CACC" opacity="1.000000" stroke="none" 
	d="
M345.456055,426.282227 
	C339.276825,425.913330 337.948242,424.662201 337.895416,419.100281 
	C337.818054,410.955475 337.978729,402.807434 337.823303,394.664856 
	C337.762817,391.495605 338.276520,389.573975 342.089569,389.783508 
	C345.539703,389.973083 349.125305,389.632294 349.224396,394.498077 
	C349.349548,400.646362 349.457916,406.806519 349.206665,412.946533 
	C349.058105,416.576691 350.089172,418.254333 353.920013,417.782440 
	C355.721161,417.560577 357.588531,417.899994 359.397491,417.711884 
	C362.404022,417.399231 363.763214,418.759308 363.790894,421.623932 
	C363.819275,424.561798 362.637207,426.355804 359.363190,426.299255 
	C354.876190,426.221741 350.386810,426.282227 345.456055,426.282227 
z"/>
<path fill="#162237" opacity="1.000000" stroke="none" 
	d="
M381.695404,396.018799 
	C381.228119,397.796997 380.256134,399.540924 379.583282,401.393463 
	C375.718048,412.036102 380.945007,422.197815 391.879669,425.189514 
	C393.931885,425.751007 396.130768,425.974213 398.266388,426.001129 
	C412.626770,426.181824 416.990875,420.735352 412.788269,406.941956 
	C411.070923,401.305389 405.580017,404.621582 401.855438,404.252136 
	C399.957306,404.063843 396.911804,405.460663 396.073883,407.038116 
	C394.973816,409.109070 395.390839,411.938293 399.251373,412.213043 
	C400.446655,412.298157 401.523132,414.052002 402.654022,415.041809 
	C401.240875,416.004028 399.806793,417.815002 398.418152,417.780792 
	C392.550659,417.636322 389.145111,412.733917 389.860992,406.136841 
	C390.491455,400.326843 395.597565,396.426208 401.578857,397.299744 
	C403.043304,397.513672 404.443420,398.404755 405.889160,398.447937 
	C407.568298,398.498138 409.265076,397.957703 410.954163,397.673584 
	C410.432434,395.610107 410.589050,392.720734 409.265411,391.633575 
	C404.783081,387.952026 399.196106,388.654022 393.967499,389.586334 
	C391.111145,390.095612 388.469727,391.810333 385.366638,393.020935 
	C387.474823,387.397186 393.093719,388.140625 397.664398,387.238159 
	C400.275421,386.722595 403.267212,387.525879 405.970459,388.202881 
	C413.621826,390.119202 415.364410,394.732361 411.134186,402.177002 
	C416.283966,404.711151 414.604279,409.554352 415.020966,413.864532 
	C416.200775,426.068726 412.525330,428.700684 399.589874,428.932465 
	C387.818512,429.143402 379.641571,424.178009 377.704346,414.889740 
	C376.353394,408.412354 375.217163,401.358917 381.695404,396.018799 
z"/>
<path fill="#162237" opacity="1.000000" stroke="none" 
	d="
M494.045563,392.065430 
	C497.126831,387.608887 506.145294,385.726105 513.463684,388.011444 
	C521.471008,390.511902 523.099792,394.325806 519.346130,401.785309 
	C522.890625,405.889282 524.614502,419.209198 521.961060,423.756073 
	C521.194092,425.070404 519.780029,426.317505 518.374634,426.897369 
	C510.655609,430.082336 502.721680,430.117645 495.160126,426.747681 
	C487.355988,423.269531 484.006897,416.313690 484.233551,408.195740 
	C484.418976,401.553925 486.122314,395.020081 493.579803,392.320526 
	C487.217560,398.034485 484.803528,404.887421 486.873657,413.119476 
	C488.703888,420.397827 493.945099,424.332977 500.982910,425.557709 
	C504.844055,426.229675 508.987946,426.179596 512.875610,425.596619 
	C519.610474,424.586700 520.850037,422.784332 520.812866,415.992188 
	C520.739380,402.559296 522.668030,404.121216 507.748932,404.038940 
	C504.825897,404.022827 503.441986,405.440338 503.385254,408.256622 
	C503.332397,410.878296 504.478119,412.089233 507.287262,412.233032 
	C508.324432,412.286133 509.276276,414.006226 510.267029,414.966003 
	C509.036438,415.957214 507.854919,417.718506 506.566437,417.800629 
	C502.034485,418.089508 498.350555,414.604187 497.685059,410.027222 
	C496.288971,400.425385 503.523834,395.004608 513.299744,398.423218 
	C515.407532,399.160309 517.950012,400.475433 518.581726,397.484589 
	C518.983582,395.581970 517.896973,392.647278 516.441895,391.269470 
	C514.949036,389.855927 512.119202,389.037567 510.007599,389.254395 
	C504.647217,389.804840 499.361298,391.080261 494.045563,392.065430 
z"/>
<path fill="#555555" opacity="1.000000" stroke="none" 
	d="
M485.291870,329.757812 
	C486.032227,328.810760 487.027527,327.641144 488.289978,327.125702 
	C501.143921,321.877136 509.169830,312.219208 510.962433,298.776184 
	C512.798340,285.008911 509.552399,271.542236 504.186920,258.724548 
	C500.301178,249.441879 495.033569,241.077591 487.128784,234.640366 
	C485.788422,233.548874 484.097198,232.888245 481.880035,231.925568 
	C476.123230,229.567169 471.054443,227.311752 466.032043,224.709824 
	C468.040955,222.916733 470.264984,221.715958 471.907501,219.968567 
	C474.693024,217.005173 477.111725,213.696960 478.716705,211.723679 
	C472.883179,207.189316 468.218018,203.563156 463.552887,199.936981 
	C463.919983,198.201706 464.287079,196.466400 465.137238,194.367767 
	C465.807404,194.004654 465.994476,194.004868 466.181549,194.005081 
	C465.612396,198.392014 466.819702,202.226151 470.773590,204.356140 
	C474.192017,206.197662 478.016754,207.284851 482.259094,208.938248 
	C480.644135,211.844940 479.429749,214.555954 477.737000,216.925156 
	C476.140503,219.159668 474.040466,221.034378 471.738037,223.526169 
	C482.372742,227.169952 491.113617,233.094803 497.258911,242.099548 
	C509.626312,260.221741 517.034607,280.010529 512.623169,302.184204 
	C509.750366,316.624146 500.429260,326.245941 485.291870,329.757812 
z"/>
<path fill="#F8F8F8" opacity="1.000000" stroke="none" 
	d="
M276.988586,182.932312 
	C276.617737,184.866287 276.048248,186.786346 275.911774,188.736725 
	C275.425537,195.686615 275.256378,202.661728 274.648468,209.599335 
	C273.901886,218.119278 275.626648,221.381210 283.665466,224.542511 
	C286.268402,225.566147 289.087769,226.155319 291.863403,226.591263 
	C294.588989,227.019318 297.384827,227.000198 300.129974,227.737885 
	C290.628998,229.896423 281.172241,230.348862 271.420227,226.901581 
	C270.833344,226.707718 270.609283,226.478439 270.214233,225.709106 
	C269.429047,221.920776 268.013824,218.614792 268.306610,215.467728 
	C269.504211,202.594818 271.223236,189.770432 273.093689,176.949310 
	C274.120117,176.986740 274.803162,177.003036 275.667297,177.418823 
	C276.228424,179.522995 276.608490,181.227646 276.988586,182.932312 
z"/>
<path fill="#717171" opacity="1.000000" stroke="none" 
	d="
M272.750275,176.928177 
	C271.223236,189.770432 269.504211,202.594818 268.306610,215.467728 
	C268.013824,218.614792 269.429047,221.920776 270.032410,225.551529 
	C269.049103,224.737808 267.315155,223.557175 267.265533,222.309509 
	C267.003113,215.716064 266.380920,208.989716 267.337524,202.524628 
	C269.541290,187.630630 272.049957,172.732605 275.560883,158.106506 
	C276.878448,152.617676 280.749054,147.403946 284.490082,142.929626 
	C288.225159,138.462448 292.932037,138.467239 297.586853,141.661133 
	C289.975555,140.100204 283.815399,142.548615 280.602814,150.552124 
	C277.200226,159.029007 275.304260,168.110657 272.750275,176.928177 
z"/>
<path fill="#787878" opacity="1.000000" stroke="none" 
	d="
M300.265503,143.864166 
	C300.397430,143.729782 300.529388,143.595413 300.994873,143.947144 
	C301.584167,146.020508 301.839874,147.607758 302.095581,149.195023 
	C302.095581,149.195023 302.095612,149.091095 301.750580,149.067062 
	C299.638519,151.120697 296.492981,153.138168 296.399017,155.288925 
	C296.218109,159.430801 294.753448,162.383392 291.602661,165.028320 
	C288.122559,164.321014 285.032990,163.646515 281.950989,162.593750 
	C284.897278,157.365295 287.313477,152.059937 290.983490,147.846741 
	C292.975830,145.559570 297.101898,145.131058 300.265503,143.864166 
z"/>
<path fill="#E7E7E7" opacity="1.000000" stroke="none" 
	d="
M299.968353,143.794983 
	C297.101898,145.131058 292.975830,145.559570 290.983490,147.846741 
	C287.313477,152.059937 284.897278,157.365295 281.658234,162.761978 
	C275.349487,166.143799 274.479218,171.179596 275.486206,177.019318 
	C274.803162,177.003036 274.120117,176.986740 273.093689,176.949310 
	C275.304260,168.110657 277.200226,159.029007 280.602814,150.552124 
	C283.815399,142.548615 289.975555,140.100204 297.641418,142.013763 
	C298.580658,142.547806 299.125916,143.136810 299.968353,143.794983 
z"/>
<path fill="#C8CACC" opacity="1.000000" stroke="none" 
	d="
M466.247375,193.743011 
	C465.994476,194.004868 465.807404,194.004654 465.341949,194.039688 
	C464.735107,193.385422 464.406616,192.695908 464.069611,191.337021 
	C468.071960,185.463623 468.130035,179.363358 467.858704,173.253647 
	C467.598755,167.399918 466.265961,166.287842 460.281433,166.310852 
	C460.217651,165.777695 460.153900,165.244553 460.044373,164.311188 
	C460.138214,163.820175 460.268341,163.671661 460.418915,163.646790 
	C469.520416,162.143234 471.352173,163.193375 470.902832,172.415085 
	C470.593658,178.760345 468.365204,185.012115 467.045654,191.686584 
	C466.835571,192.538651 466.574371,193.009796 466.247375,193.743011 
z"/>
<path fill="#555555" opacity="1.000000" stroke="none" 
	d="
M433.325195,337.716980 
	C433.477142,337.098541 433.972778,336.269684 434.632751,336.106812 
	C443.916840,333.815613 453.223267,331.614990 462.744324,329.627136 
	C455.671814,332.207092 448.410034,334.655914 441.068726,336.837006 
	C438.736511,337.529938 436.192444,337.509949 433.325195,337.716980 
z"/>
<path fill="#555555" opacity="1.000000" stroke="none" 
	d="
M404.346436,339.778564 
	C406.752502,338.796478 409.546326,337.355835 412.430725,337.143158 
	C417.362305,336.779541 422.350586,337.185242 427.628479,337.526459 
	C425.907013,338.120483 423.883667,338.603638 421.835114,338.763000 
	C416.153992,339.204956 410.462372,339.512024 404.346436,339.778564 
z"/>
<path fill="#555555" opacity="1.000000" stroke="none" 
	d="
M465.321899,328.903992 
	C465.701660,327.744843 466.453918,326.592438 467.355591,325.211121 
	C465.813110,325.054443 464.449432,324.915924 462.095459,324.676788 
	C468.804474,322.733490 473.377930,324.329346 477.000458,329.357666 
	C476.312195,329.529816 475.239349,329.662201 474.806030,329.197876 
	C471.810730,325.987854 468.785797,327.104858 465.321899,328.903992 
z"/>
<path fill="#0D131E" opacity="1.000000" stroke="none" 
	d="
M281.748169,253.001938 
	C280.491852,256.584503 278.889832,260.120972 277.287811,263.657471 
	C276.865326,263.516998 276.442841,263.376526 276.020386,263.236023 
	C276.518127,259.969299 277.015900,256.702576 277.256042,253.188416 
	C278.480560,248.747482 279.931763,253.755341 281.748169,253.001938 
z"/>
<path fill="#585859" opacity="1.000000" stroke="none" 
	d="
M302.434814,149.165863 
	C301.839874,147.607758 301.584167,146.020508 301.265320,144.028839 
	C303.081146,144.328629 304.960175,145.032837 307.170471,146.031693 
	C305.925873,147.263138 304.349976,148.199921 302.434814,149.165863 
z"/>
<path fill="#555555" opacity="1.000000" stroke="none" 
	d="
M386.604462,338.702637 
	C387.454926,339.466248 387.984955,340.365936 388.730652,341.516449 
	C387.109039,342.071991 385.271790,342.376709 383.223999,342.379395 
	C384.103668,340.997833 385.193848,339.918274 386.604462,338.702637 
z"/>
<path fill="#555555" opacity="1.000000" stroke="none" 
	d="
M398.273407,340.765564 
	C399.106171,340.226288 400.299438,339.779846 401.719177,339.562683 
	C400.841736,340.147461 399.737823,340.502960 398.273407,340.765564 
z"/>
<path fill="#555555" opacity="1.000000" stroke="none" 
	d="
M376.165131,343.252014 
	C376.827026,342.665955 377.653687,342.328735 378.810913,342.166199 
	C378.204285,342.727539 377.267090,343.114197 376.165131,343.252014 
z"/>
<path fill="#555555" opacity="1.000000" stroke="none" 
	d="
M392.235229,341.714294 
	C392.786407,341.199646 393.671387,340.780701 394.753052,340.582123 
	C394.156158,341.138336 393.362579,341.474182 392.235229,341.714294 
z"/>
<path fill="#555555" opacity="1.000000" stroke="none" 
	d="
M479.223938,330.030518 
	C479.891785,329.649963 480.737183,329.503479 481.766724,329.576965 
	C481.101074,329.952820 480.251251,330.108704 479.223938,330.030518 
z"/>
<path fill="#717171" opacity="1.000000" stroke="none" 
	d="
M313.877808,144.023605 
	C313.499695,144.580719 312.833923,144.936554 312.086609,145.045898 
	C312.533478,144.473724 313.061798,144.148026 313.877808,144.023605 
z"/>
<path fill="#787878" opacity="1.000000" stroke="none" 
	d="
M463.352325,200.210754 
	C468.218018,203.563156 472.883179,207.189316 478.716705,211.723679 
	C477.111725,213.696960 474.693024,217.005173 471.907501,219.968567 
	C470.264984,221.715958 468.040955,222.916733 465.780151,224.981842 
	C466.174652,228.332275 466.319275,231.376495 467.664062,233.736893 
	C471.525269,240.514008 475.896210,246.999451 480.023285,253.626648 
	C488.558441,267.332275 490.100220,281.914581 484.996185,297.122894 
	C482.150055,305.603394 477.042480,308.862823 468.164795,309.205994 
	C455.935150,309.678741 445.408844,305.503448 436.025665,297.599030 
	C436.091461,296.888977 436.118408,296.605042 436.145386,296.321075 
	C442.984619,299.653595 449.622406,303.528168 456.719849,306.165863 
	C463.789673,308.793274 466.559540,307.429779 470.184967,300.815491 
	C478.753632,285.182739 478.424347,269.196808 470.661285,253.480530 
	C467.371643,246.820648 462.816193,240.786789 458.850067,234.459610 
	C458.056427,233.193497 457.266510,231.918686 456.577393,230.594513 
	C453.807465,225.272095 454.337341,224.593765 459.737183,222.313873 
	C464.380341,220.353439 468.679352,217.578033 472.580780,215.461273 
	C469.093079,209.921509 466.122406,205.203033 463.352325,200.210754 
z"/>
<path fill="#767676" opacity="1.000000" stroke="none" 
	d="
M387.038574,191.007721 
	C389.641144,197.735931 392.029694,204.560242 394.980743,211.131958 
	C395.831573,213.026703 398.069641,214.826843 400.077576,215.562653 
	C404.141693,217.051910 407.366608,215.747345 408.129486,210.995422 
	C411.411438,213.493301 414.457184,215.811432 417.679291,218.263779 
	C415.249359,223.237228 410.066589,221.915848 404.778870,222.736374 
	C406.735077,226.566681 408.599365,229.783890 410.032288,233.182968 
	C410.911255,235.268021 411.129425,237.631638 411.297333,239.653656 
	C410.069366,238.911072 408.988892,237.754120 408.339233,237.959534 
	C403.510376,239.486374 398.767059,241.283615 393.998474,242.997986 
	C394.000000,243.000000 394.003937,243.003159 394.010101,242.598160 
	C396.494690,233.582642 397.405273,224.940292 393.634827,216.483734 
	C391.614990,211.953690 388.907959,207.731354 386.861816,203.211365 
	C385.096069,199.310883 383.826691,195.185684 382.148865,190.648697 
	C384.732788,190.838409 385.885681,190.923065 387.038574,191.007721 
z"/>
<path fill="#656565" opacity="1.000000" stroke="none" 
	d="
M387.211853,190.857574 
	C385.885681,190.923065 384.732788,190.838409 382.148865,190.648697 
	C383.826691,195.185684 385.096069,199.310883 386.861816,203.211365 
	C388.907959,207.731354 391.614990,211.953690 393.634827,216.483734 
	C397.405273,224.940292 396.494690,233.582642 393.872711,242.648743 
	C393.818420,243.068207 393.907684,243.032104 393.996918,242.995987 
	C398.767059,241.283615 403.510376,239.486374 408.339233,237.959534 
	C408.988892,237.754120 410.069366,238.911072 411.006500,239.792084 
	C408.385529,241.118256 405.674713,242.006714 403.039398,243.080566 
	C399.308868,244.600693 395.634094,246.257629 391.243622,247.978424 
	C384.376282,251.214951 383.852478,252.436722 385.809845,258.825958 
	C386.867462,262.278137 388.060669,265.710205 388.780853,269.235474 
	C389.152588,271.055023 390.088470,273.833099 386.477478,273.456726 
	C385.666290,268.684906 385.190155,264.190765 383.793915,260.003448 
	C382.220825,255.285812 381.338257,251.021591 385.856995,247.237488 
	C380.708801,242.698105 375.559326,243.541748 370.084839,245.512939 
	C369.716095,244.984406 369.544403,244.790588 369.372681,244.596771 
	C369.582123,243.968872 369.791565,243.340988 370.444458,242.377441 
	C371.666901,242.052002 372.445923,242.062225 373.661499,242.051178 
	C377.870361,242.743057 381.620422,243.679871 385.426025,244.059082 
	C386.944214,244.210358 389.334839,243.623322 390.052063,242.532944 
	C396.018890,233.461441 395.103790,223.677521 388.085938,215.475616 
	C388.541412,214.078247 389.330872,212.734543 388.967865,211.880783 
	C387.737122,208.985977 386.047485,206.290298 384.627319,203.471130 
	C382.073975,198.402664 380.208282,193.172165 381.056091,187.240875 
	C383.532562,187.733490 385.765289,188.177628 387.980988,188.985931 
	C387.991577,189.591583 388.019196,189.833069 388.046844,190.074539 
	C387.810760,190.269302 387.590179,190.480255 387.211853,190.857574 
z"/>
<path fill="#787878" opacity="1.000000" stroke="none" 
	d="
M334.026245,254.073425 
	C338.157074,254.009216 342.287872,253.945007 346.686890,254.573471 
	C351.888794,261.745331 353.969452,269.085632 352.896973,277.112000 
	C352.311005,281.497284 350.972656,285.782013 349.973602,290.112091 
	C346.749207,290.425232 343.524841,290.738373 339.184540,291.159882 
	C340.891266,288.095886 342.422363,286.108551 343.166077,283.860718 
	C344.961884,278.432556 347.395111,272.941315 347.719910,267.367615 
	C348.157745,259.855072 342.253021,255.119202 334.499878,255.208099 
	C334.064697,254.627426 334.045471,254.350418 334.026245,254.073425 
z"/>
<path fill="#656565" opacity="1.000000" stroke="none" 
	d="
M460.023560,166.564453 
	C466.265961,166.287842 467.598755,167.399918 467.858704,173.253647 
	C468.130035,179.363358 468.071960,185.463623 463.957031,190.972458 
	C462.825256,191.110291 461.797516,190.943283 460.685791,190.199478 
	C460.392761,189.082932 460.183807,188.543198 459.974823,188.003448 
	C458.831940,183.612534 458.387115,178.867661 456.382263,174.913803 
	C453.388458,169.009460 453.064941,168.888336 460.023560,166.564453 
z"/>
<path fill="#787878" opacity="1.000000" stroke="none" 
	d="
M279.601471,322.523224 
	C280.029541,322.119110 280.561554,322.072266 281.880310,321.988464 
	C283.494446,320.673096 284.598236,319.494995 285.104584,318.100037 
	C288.552979,308.599884 291.783905,299.019653 295.336395,289.559662 
	C295.877655,288.118317 297.720215,287.165680 298.960876,285.987000 
	C296.269287,297.095825 293.793732,308.263153 290.807220,319.292114 
	C288.933136,326.213104 284.365875,327.467133 279.601471,322.523224 
z"/>
<path fill="#767676" opacity="1.000000" stroke="none" 
	d="
M375.019775,284.853455 
	C367.625854,286.254700 360.231903,287.655945 352.468536,288.627716 
	C353.070129,284.886108 353.807709,281.477478 355.119263,278.306183 
	C355.698242,276.906158 357.441650,275.987701 358.838776,275.097504 
	C360.684998,277.252380 362.348846,279.160400 364.059174,281.384949 
	C365.056976,281.572876 366.008270,281.444275 367.207092,281.189392 
	C367.639160,281.048492 367.823792,281.033783 368.236938,281.286804 
	C369.972809,281.380310 371.480194,281.206085 373.263885,281.063385 
	C373.701355,281.186554 373.862518,281.278259 374.069519,281.671875 
	C374.416809,282.933624 374.718292,283.893524 375.019775,284.853455 
z"/>
<path fill="#656565" opacity="1.000000" stroke="none" 
	d="
M439.987640,183.085632 
	C442.209869,183.854370 444.432068,184.623138 446.654297,185.391891 
	C445.716858,187.544571 445.360260,190.515869 443.720825,191.679123 
	C440.331238,194.084167 436.258545,195.526489 432.284790,196.799561 
	C432.462067,194.006866 432.821350,191.779388 433.246277,189.145111 
	C433.942963,189.145111 434.709625,189.226044 435.450287,189.122009 
	C436.170471,189.020813 436.864044,188.730133 437.569305,188.522659 
	C437.602203,187.981461 437.635071,187.440262 437.667938,186.899063 
	C435.858826,186.732574 434.049713,186.566071 432.023895,186.204437 
	C431.567719,185.708633 431.328247,185.407990 431.088776,185.107361 
	C432.825592,184.452957 434.562408,183.798553 436.851318,183.354614 
	C438.264832,183.405273 439.126221,183.245453 439.987640,183.085632 
z"/>
<path fill="#656565" opacity="1.000000" stroke="none" 
	d="
M299.223755,285.771973 
	C297.720215,287.165680 295.877655,288.118317 295.336395,289.559662 
	C291.783905,299.019653 288.552979,308.599884 285.104584,318.100037 
	C284.598236,319.494995 283.494446,320.673096 282.278625,321.971497 
	C284.537689,313.118652 286.213379,303.790192 290.101349,295.499084 
	C294.127960,286.912445 300.299927,279.331787 306.141541,271.164154 
	C307.241913,271.413544 307.734222,271.809906 308.226532,272.206268 
	C305.313232,276.656494 302.399933,281.106720 299.223755,285.771973 
z"/>
<path fill="#959596" opacity="1.000000" stroke="none" 
	d="
M416.882812,203.017624 
	C418.664154,205.922287 421.026520,207.530151 424.666199,207.218430 
	C427.813202,206.948898 430.879120,206.990326 430.088654,201.587143 
	C432.555573,203.263382 434.232971,204.403168 436.182434,205.727814 
	C423.406311,211.276154 420.696594,211.085144 414.807159,204.506134 
	C405.989471,206.938522 403.901581,205.809708 399.029510,195.674255 
	C400.894562,195.674255 402.566589,195.674255 404.266449,195.674255 
	C403.643524,202.436935 406.162598,204.159805 413.640198,202.191833 
	C415.099640,202.594955 415.991211,202.806290 416.882812,203.017624 
z"/>
<path fill="#959596" opacity="1.000000" stroke="none" 
	d="
M435.986572,296.069611 
	C436.118408,296.605042 436.091461,296.888977 435.703430,297.496033 
	C427.067688,291.961853 420.550995,284.595367 415.795532,275.604218 
	C415.003601,274.106873 413.149689,273.171204 411.786499,271.976013 
	C409.394623,268.638245 407.997650,265.213684 411.057434,261.086761 
	C413.519379,265.363190 415.761719,269.983337 418.064148,274.573364 
	C422.314392,283.046539 428.359131,290.030365 435.986572,296.069611 
z"/>
<path fill="#656565" opacity="1.000000" stroke="none" 
	d="
M358.656433,274.850647 
	C357.441650,275.987701 355.698242,276.906158 355.119263,278.306183 
	C353.807709,281.477478 353.070129,284.886108 352.045044,288.568237 
	C351.525757,289.330902 351.060608,289.723541 350.284515,290.114136 
	C350.972656,285.782013 352.311005,281.497284 352.896973,277.112000 
	C353.969452,269.085632 351.888794,261.745331 346.904968,254.861450 
	C349.681824,256.597717 352.508820,258.738647 355.448608,261.268250 
	C355.561432,261.656921 355.486237,261.940552 355.213318,262.046509 
	C354.855743,263.456818 354.771118,264.761139 354.686493,266.065460 
	C355.054199,266.083405 355.421936,266.101379 355.789642,266.119324 
	C355.894287,264.909332 355.998962,263.699310 356.330017,262.460999 
	C356.556396,262.432739 356.997742,262.316711 357.184418,262.487854 
	C357.694275,262.760529 358.017487,262.862122 358.323944,263.426208 
	C358.423645,267.542725 358.540039,271.196686 358.656433,274.850647 
z"/>
<path fill="#767676" opacity="1.000000" stroke="none" 
	d="
M386.406403,273.869843 
	C390.088470,273.833099 389.152588,271.055023 388.780853,269.235474 
	C388.060669,265.710205 386.867462,262.278137 385.809845,258.825958 
	C383.852478,252.436722 384.376282,251.214951 390.937714,248.124268 
	C387.965851,252.293365 388.680389,256.604980 390.429932,261.200714 
	C393.060608,268.110962 392.751526,274.536072 385.688232,278.946838 
	C385.067657,277.751587 384.929626,276.996063 384.899841,276.026489 
	C385.474213,275.164917 385.940308,274.517395 386.406403,273.869843 
z"/>
<path fill="#959596" opacity="1.000000" stroke="none" 
	d="
M388.409180,190.108246 
	C388.019196,189.833069 387.991577,189.591583 388.175171,188.738708 
	C390.342560,185.757233 392.583954,183.563080 394.182190,180.972198 
	C396.147980,177.785492 397.577301,174.267853 399.238495,170.893250 
	C399.511108,170.886108 399.783752,170.878967 400.464661,170.896820 
	C400.320526,172.756699 399.768036,174.591568 399.084076,176.863174 
	C404.014557,175.198166 407.903503,176.337738 410.559387,180.889313 
	C410.072327,181.679962 409.813812,181.981216 409.315887,182.051529 
	C406.826874,180.728867 404.577332,179.637161 402.327759,178.545441 
	C402.128876,181.173981 401.807800,183.802078 401.798676,186.431290 
	C401.795563,187.325089 402.578827,188.221619 402.997498,189.479889 
	C402.907593,190.319595 402.822937,190.796326 402.738281,191.273041 
	C400.960846,187.331360 399.183411,183.389664 397.934235,180.619431 
	C395.595581,183.049942 392.183563,186.595947 388.409180,190.108246 
z"/>
<path fill="#656565" opacity="1.000000" stroke="none" 
	d="
M402.987122,191.572784 
	C402.822937,190.796326 402.907593,190.319595 403.319305,189.291550 
	C404.490295,186.406464 404.116943,182.433777 408.629364,185.039154 
	C408.938019,184.120255 409.246674,183.201370 409.555328,182.282471 
	C409.813812,181.981216 410.072327,181.679962 410.593842,181.238403 
	C411.578278,184.817474 415.593170,187.893799 413.036926,192.631714 
	C413.038879,193.009903 413.050842,192.948914 413.050842,192.948914 
	C409.779236,192.590118 406.507599,192.231308 402.987122,191.572784 
z"/>
<path fill="#959596" opacity="1.000000" stroke="none" 
	d="
M308.543793,272.106079 
	C307.734222,271.809906 307.241913,271.413544 306.422455,270.975281 
	C306.095306,270.933350 306.023193,270.482727 306.004211,270.255341 
	C310.027618,267.197449 313.901733,264.076172 318.156830,261.613068 
	C323.022339,258.796631 328.226593,256.565369 333.654968,254.076630 
	C334.045471,254.350418 334.064697,254.627426 334.115234,255.320953 
	C325.718079,261.160278 317.289581,266.583069 308.543793,272.106079 
z"/>
<path fill="#E7E7E7" opacity="1.000000" stroke="none" 
	d="
M432.240601,186.399567 
	C434.049713,186.566071 435.858826,186.732574 437.667938,186.899063 
	C437.635071,187.440262 437.602203,187.981461 437.569305,188.522659 
	C436.864044,188.730133 436.170471,189.020813 435.450287,189.122009 
	C434.709625,189.226044 433.942963,189.145111 433.246277,189.145111 
	C432.821350,191.779388 432.462067,194.006866 431.987976,196.629257 
	C430.746124,197.332413 429.619049,197.640656 428.215393,197.546112 
	C424.900330,193.327240 426.707153,190.584976 429.929535,188.154984 
	C430.701904,187.572556 431.470337,186.984848 432.240601,186.399567 
z"/>
<path fill="#767676" opacity="1.000000" stroke="none" 
	d="
M416.890533,202.639587 
	C415.991211,202.806290 415.099640,202.594955 414.011627,202.090210 
	C413.610046,199.123138 413.404846,196.449448 413.125244,193.362335 
	C413.050842,192.948914 413.038879,193.009903 413.008636,193.014191 
	C415.638824,193.567734 418.299286,194.116974 421.755524,194.830536 
	C419.968170,197.564987 418.433228,199.913269 416.890533,202.639587 
z"/>
<path fill="#656565" opacity="1.000000" stroke="none" 
	d="
M384.791595,276.240601 
	C384.929626,276.996063 385.067657,277.751587 385.364746,279.063477 
	C385.523804,279.619904 385.485474,279.621155 385.072937,279.434021 
	C381.630768,278.597321 379.876953,279.571747 379.986603,282.918396 
	C378.556580,283.569641 377.126587,284.220856 375.358154,284.862762 
	C374.718292,283.893524 374.416809,282.933624 374.467163,281.632599 
	C379.466400,281.371765 378.510986,277.692139 379.314606,275.009705 
	C379.962555,275.023895 380.332703,275.034943 380.932007,275.296051 
	C382.371307,275.777618 383.581451,276.009094 384.791595,276.240601 
z"/>
<path fill="#959596" opacity="1.000000" stroke="none" 
	d="
M432.023895,186.204422 
	C431.470337,186.984848 430.701904,187.572556 429.929535,188.154984 
	C426.707153,190.584976 424.900330,193.327240 427.863647,197.497635 
	C422.684418,195.784698 422.147552,194.249222 425.459320,189.979630 
	C426.845917,188.191986 428.749908,186.805664 430.753723,185.172119 
	C431.328247,185.407990 431.567719,185.708633 432.023895,186.204422 
z"/>
<path fill="#767676" opacity="1.000000" stroke="none" 
	d="
M380.331818,282.924988 
	C379.876953,279.571747 381.630768,278.597321 385.057007,279.444458 
	C383.861450,280.738525 382.269257,281.835052 380.331818,282.924988 
z"/>
<path fill="#959596" opacity="1.000000" stroke="none" 
	d="
M439.789673,182.881012 
	C439.126221,183.245453 438.264832,183.405273 437.212280,183.344681 
	C437.878021,182.974976 438.734833,182.825684 439.789673,182.881012 
z"/>
<path fill="#C8CACC" opacity="1.000000" stroke="none" 
	d="
M459.763794,188.136871 
	C460.183807,188.543198 460.392761,189.082932 460.486084,189.906738 
	C460.097870,189.550629 459.825317,188.910461 459.763794,188.136871 
z"/>
<path fill="#767676" opacity="1.000000" stroke="none" 
	d="
M387.891785,215.753799 
	C395.103790,223.677521 396.018890,233.461441 390.052063,242.532944 
	C389.334839,243.623322 386.944214,244.210358 385.426025,244.059082 
	C381.620422,243.679871 377.870361,242.743057 373.609924,241.797852 
	C373.088654,241.397293 373.055481,241.228745 373.129639,240.698669 
	C374.175232,236.472641 375.759857,232.622757 375.847748,228.739014 
	C375.918335,225.619919 374.175262,222.459793 373.236969,219.317871 
	C371.334137,219.940567 369.437378,220.583328 367.521332,221.162247 
	C367.261566,221.240738 366.905121,220.999130 366.754791,220.954071 
	C365.872864,218.543823 365.549255,215.814987 364.085541,214.011520 
	C359.991394,208.967010 357.919708,203.536209 358.867249,197.030731 
	C358.948883,196.470200 358.473206,195.828491 357.780884,195.153320 
	C356.986206,195.051331 356.667114,195.020508 356.348022,194.989700 
	C355.561371,190.980637 354.774719,186.971558 354.029938,182.351547 
	C354.396667,181.484970 354.721527,181.229340 355.341980,181.151962 
	C356.829895,182.374481 358.022217,183.418747 360.396240,185.497971 
	C360.396240,182.118347 360.498627,180.218811 360.377899,178.333572 
	C359.941803,171.523941 359.357635,164.722763 359.018066,157.908997 
	C358.959961,156.743332 359.825073,155.531677 360.263702,154.341278 
	C361.101776,154.905396 361.939850,155.469513 362.436371,156.114532 
	C361.917389,157.192184 361.462585,158.232101 361.609772,159.178360 
	C362.319641,163.742065 363.176605,168.283310 364.009399,172.827393 
	C365.585968,181.429596 367.028381,190.061951 368.904144,198.598831 
	C369.261108,200.223251 371.363312,201.464203 372.854187,203.046753 
	C373.315063,203.816513 373.582062,204.421631 373.550171,205.080811 
	C372.889404,208.111740 374.001984,209.379211 376.547485,208.726410 
	C377.328888,209.499298 377.839661,210.127304 378.055573,210.961975 
	C376.947968,214.763916 379.668732,213.668152 381.561890,213.879395 
	C381.735321,213.857513 382.021088,214.058914 382.184937,214.289856 
	C382.699127,214.651443 383.049469,214.782104 383.565155,214.881958 
	C383.730499,214.851181 384.007416,215.042084 384.044586,215.352264 
	C384.784882,215.669617 385.488037,215.676788 386.474792,215.701172 
	C387.136200,215.730209 387.514008,215.742004 387.891785,215.753799 
z"/>
<path fill="#585859" opacity="1.000000" stroke="none" 
	d="
M275.667297,177.418823 
	C274.479218,171.179596 275.349487,166.143799 281.650665,163.140228 
	C285.032990,163.646515 288.122559,164.321014 291.607788,165.443207 
	C292.022095,166.445358 292.040771,166.999786 291.687012,167.391022 
	C289.187866,166.858292 287.061157,166.488770 284.934479,166.119247 
	C284.775269,166.518555 284.616089,166.917862 284.456879,167.317169 
	C289.472015,168.236160 292.781342,170.731247 292.757660,175.966354 
	C290.907166,176.448410 289.435669,176.919693 287.964172,177.390991 
	C287.099274,179.674118 286.234406,181.957245 284.924805,184.731094 
	C284.199738,185.312180 283.919403,185.402557 283.323547,185.339264 
	C282.347473,184.948059 281.686890,184.710556 281.026337,184.473068 
	C279.878662,183.968307 278.730957,183.463547 277.285950,182.945557 
	C276.608490,181.227646 276.228424,179.522995 275.667297,177.418823 
z"/>
<path fill="#959596" opacity="1.000000" stroke="none" 
	d="
M283.639038,185.492950 
	C283.919403,185.402557 284.199738,185.312180 284.906738,185.106293 
	C288.872955,195.250656 293.648529,198.712662 304.879395,199.299210 
	C316.515717,199.906982 326.963379,196.727722 335.990875,189.355621 
	C341.062408,185.214081 341.696198,182.159256 338.611786,175.382996 
	C342.066498,177.575073 344.400970,179.056335 346.514252,180.397263 
	C344.824707,182.469727 343.537292,184.336197 341.963593,185.917831 
	C338.946838,188.949875 336.141388,192.416733 332.585327,194.645386 
	C322.057037,201.243744 310.543274,204.124008 298.244537,200.793915 
	C294.697327,199.833450 291.614471,197.245300 288.204346,195.647491 
	C286.879730,195.026840 285.238922,195.080994 283.394989,194.949661 
	C283.027252,194.582672 283.006683,194.093796 283.030182,192.866119 
	C283.262543,189.915878 283.450806,187.704407 283.639038,185.492950 
z"/>
<path fill="#656565" opacity="1.000000" stroke="none" 
	d="
M292.059448,167.554230 
	C292.040771,166.999786 292.022095,166.445358 291.998291,165.476013 
	C294.753448,162.383392 296.218109,159.430801 296.399017,155.288925 
	C296.492981,153.138168 299.638519,151.120697 301.798889,149.086151 
	C301.653381,149.934418 301.114502,150.739594 300.452972,151.727997 
	C301.603882,152.574203 302.762970,153.426437 303.658661,154.609589 
	C302.038269,154.826096 300.681305,154.711716 299.405670,154.604202 
	C298.172424,159.407394 299.419006,161.898758 304.875580,161.639481 
	C304.610962,159.188446 304.374573,156.998734 304.138184,154.809021 
	C309.028961,159.846893 308.372498,165.895950 302.703308,170.347031 
	C299.955078,172.504761 297.547607,175.096542 294.306000,178.127502 
	C293.319611,178.006424 291.057953,177.728790 288.380249,177.421066 
	C289.435669,176.919693 290.907166,176.448410 293.103638,175.910217 
	C293.238922,173.080292 292.649200,170.317261 292.059448,167.554230 
M296.430328,167.704422 
	C296.702393,167.990158 296.974426,168.275909 297.246490,168.561646 
	C297.364166,168.448471 297.590759,168.243652 297.583771,168.235336 
	C297.330170,167.933853 297.054779,167.650665 296.430328,167.704422 
z"/>
<path fill="#959596" opacity="1.000000" stroke="none" 
	d="
M355.046417,180.973709 
	C354.721527,181.229340 354.396667,181.484970 353.909454,182.010498 
	C348.309723,176.599548 341.617188,173.187973 334.127991,170.987122 
	C323.787476,167.948334 319.964935,155.450363 326.473724,146.542374 
	C327.321075,145.382660 328.079498,144.157928 328.793182,142.631531 
	C330.042542,142.541290 331.377808,142.782867 332.874329,143.547058 
	C330.967346,146.068115 328.899048,148.066544 326.830780,150.064972 
	C338.957581,146.595779 343.689331,147.492416 346.441284,155.133408 
	C344.652100,153.844543 343.403137,152.904236 342.113708,152.023270 
	C337.418213,148.815231 333.377319,151.054596 329.169464,153.368088 
	C325.394775,155.443451 325.732574,158.644760 326.219910,161.958847 
	C326.797150,165.883865 329.810364,167.162735 333.146149,168.183777 
	C341.437775,170.721741 349.697754,173.372574 355.046417,180.973709 
z"/>
<path fill="#959596" opacity="1.000000" stroke="none" 
	d="
M373.022278,241.060211 
	C373.055481,241.228745 373.088654,241.397293 373.173370,241.819138 
	C372.445923,242.062225 371.666901,242.052002 370.499481,242.047531 
	C369.931854,240.119461 369.752594,238.185638 369.565704,236.169418 
	C365.087616,237.995895 360.848358,239.724960 356.609070,241.454041 
	C356.027588,241.265442 355.446106,241.076843 354.864624,240.888245 
	C367.715698,222.342224 357.950592,213.473114 341.210297,207.162659 
	C347.622223,204.440689 354.568787,203.260025 356.171387,195.248688 
	C356.667114,195.020508 356.986206,195.051331 357.742920,195.514648 
	C355.317505,200.065140 352.454529,204.183136 350.135925,207.518112 
	C353.571808,211.165390 358.405457,215.087387 361.643188,220.050476 
	C365.385468,225.787003 362.466766,231.951584 358.893219,238.527802 
	C361.156219,237.517426 362.083862,237.175995 362.942780,236.708328 
	C370.563721,232.558792 370.558807,232.552567 372.649109,240.739624 
	C372.682343,240.869751 372.893921,240.954361 373.022278,241.060211 
z"/>
<path fill="#959596" opacity="1.000000" stroke="none" 
	d="
M355.486237,261.940552 
	C355.486237,261.940552 355.561432,261.656921 355.652771,261.542450 
	C357.043762,259.025879 358.016846,256.355957 359.717224,254.282486 
	C362.480255,250.913223 365.719421,247.934433 369.065125,244.693787 
	C369.544403,244.790588 369.716095,244.984406 369.928894,245.766968 
	C363.911407,249.943695 361.114685,255.890915 358.204987,262.079895 
	C357.528595,262.176331 357.263153,262.246521 356.997742,262.316711 
	C356.997742,262.316711 356.556396,262.432739 356.205688,262.290039 
	C355.855011,262.147308 355.486237,261.940552 355.486237,261.940552 
z"/>
<path fill="#959596" opacity="1.000000" stroke="none" 
	d="
M306.757385,213.835724 
	C305.920563,213.328384 305.445251,212.549454 304.957520,211.460052 
	C309.079193,211.149582 313.213287,211.149582 317.347382,211.149582 
	C317.380615,211.560745 317.413879,211.971909 317.447144,212.383072 
	C314.004395,212.776749 310.561646,213.170425 306.757385,213.835724 
z"/>
<path fill="#E7E7E7" opacity="1.000000" stroke="none" 
	d="
M283.323547,185.339264 
	C283.450806,187.704407 283.262543,189.915878 283.028137,192.499191 
	C278.241425,192.620728 277.369415,190.062195 280.623413,184.620712 
	C281.686890,184.710556 282.347473,184.948059 283.323547,185.339264 
z"/>
<path fill="#F8F8F8" opacity="1.000000" stroke="none" 
	d="
M411.815979,272.374512 
	C413.149689,273.171204 415.003601,274.106873 415.795532,275.604218 
	C420.550995,284.595367 427.067688,291.961853 435.664551,297.922119 
	C445.408844,305.503448 455.935150,309.678741 468.164795,309.205994 
	C477.042480,308.862823 482.150055,305.603394 484.996185,297.122894 
	C490.100220,281.914581 488.558441,267.332275 480.023285,253.626648 
	C475.896210,246.999451 471.525269,240.514008 467.664062,233.736893 
	C466.319275,231.376495 466.174652,228.332275 465.733795,225.328354 
	C471.054443,227.311752 476.123230,229.567169 481.504303,231.961395 
	C490.681427,242.427872 497.545197,253.782928 500.338379,267.328705 
	C503.728821,283.771240 495.299652,304.481659 481.545197,313.312042 
	C473.544037,318.448792 464.826935,319.147675 456.118591,316.372925 
	C434.102783,309.358124 418.873291,295.154633 411.815979,272.374512 
z"/>
<path fill="#555555" opacity="1.000000" stroke="none" 
	d="
M453.577850,323.935730 
	C452.701508,323.583862 452.182434,323.270355 451.663361,322.956879 
	C451.731049,322.719849 451.798706,322.482819 451.866394,322.245819 
	C454.376526,322.641327 456.886688,323.036835 459.396820,323.432312 
	C459.389587,323.810760 459.382355,324.189178 459.375092,324.567627 
	C457.561768,324.369781 455.748444,324.171936 453.577850,323.935730 
z"/>
<path fill="#0D131E" opacity="1.000000" stroke="none" 
	d="
M552.649048,399.758667 
	C559.145752,395.605774 564.463440,398.030243 565.081909,405.233917 
	C565.318542,407.990173 565.586731,411.231628 564.393372,413.485870 
	C563.192932,415.753510 560.221497,418.382812 557.973877,418.431213 
	C555.730652,418.479492 552.393982,416.003693 551.360291,413.784882 
	C549.295715,409.353302 549.508728,404.433655 552.649048,399.758667 
z"/>
<path fill="#0D131E" opacity="1.000000" stroke="none" 
	d="
M293.285522,413.418152 
	C293.248566,409.465759 292.514465,405.588898 293.684906,402.414276 
	C294.497894,400.209137 297.938049,397.656708 300.190338,397.669952 
	C302.422363,397.683044 305.491058,400.286835 306.627014,402.542786 
	C307.850250,404.972229 307.574097,408.339294 307.373566,411.257477 
	C307.114014,415.034149 305.122314,417.967529 301.151703,418.618469 
	C297.371307,419.238251 294.884827,417.174255 293.285522,413.418152 
z"/>
<path fill="#555555" opacity="1.000000" stroke="none" 
	d="
M444.875916,416.043884 
	C441.420563,411.768921 441.157501,403.887421 444.338287,399.934845 
	C447.773590,395.665985 453.900269,395.991943 456.423309,400.826324 
	C458.874634,405.523193 458.836121,410.545135 456.433472,415.248871 
	C454.139862,419.739197 449.873932,420.203064 445.424561,416.466064 
	C451.723846,417.958374 455.190460,416.537598 456.062042,411.672424 
	C456.378418,409.906525 456.307251,408.045502 456.216217,406.237762 
	C456.037292,402.685608 455.207306,399.715424 450.675720,399.574158 
	C446.223236,399.435364 444.151581,401.966003 443.941254,405.812012 
	C443.756226,409.195465 444.527191,412.631226 444.875916,416.043884 
z"/>
<path fill="#FAFAFA" opacity="1.000000" stroke="none" 
	d="
M355.341980,181.151962 
	C349.697754,173.372574 341.437775,170.721741 333.146149,168.183777 
	C329.810364,167.162735 326.797150,165.883865 326.219910,161.958847 
	C325.732574,158.644760 325.394775,155.443451 329.169464,153.368088 
	C333.377319,151.054596 337.418213,148.815231 342.113708,152.023270 
	C343.403137,152.904236 344.652100,153.844543 346.441284,155.133408 
	C343.689331,147.492416 338.957581,146.595779 326.830780,150.064972 
	C328.899048,148.066544 330.967346,146.068115 333.220245,143.807465 
	C341.412323,141.974762 348.964142,143.544067 356.922882,147.196060 
	C362.681488,149.157761 367.340118,147.974640 371.893402,145.498642 
	C379.810852,141.193283 383.433929,141.797821 388.830811,149.131088 
	C392.534882,154.164185 395.527374,159.721008 398.837921,165.043716 
	C399.074982,166.758102 399.312073,168.472473 399.393799,170.540054 
	C397.577301,174.267853 396.147980,177.785492 394.182190,180.972198 
	C392.583954,183.563080 390.342560,185.757233 388.192200,188.374542 
	C385.765289,188.177628 383.532562,187.733490 381.056091,187.240875 
	C380.208282,193.172165 382.073975,198.402664 384.627319,203.471130 
	C386.047485,206.290298 387.737122,208.985977 388.967865,211.880783 
	C389.330872,212.734543 388.541412,214.078247 388.085938,215.475616 
	C387.514008,215.742004 387.136200,215.730209 386.313293,215.426071 
	C385.247894,215.103195 384.627655,215.072647 384.007416,215.042084 
	C384.007416,215.042084 383.730499,214.851181 383.408447,214.635559 
	C382.731262,214.299591 382.376190,214.179245 382.021088,214.058899 
	C382.021088,214.058914 381.735321,213.857513 381.394836,213.602295 
	C380.153015,212.483154 379.251709,211.619247 378.350403,210.755310 
	C377.839661,210.127304 377.328888,209.499298 376.424072,208.445740 
	C375.303040,207.022385 374.576050,206.024567 373.849030,205.026749 
	C373.582062,204.421631 373.315063,203.816513 372.770844,202.672668 
	C371.240265,197.677887 369.693512,193.280273 368.792084,188.754135 
	C366.626282,177.879379 364.763153,166.944351 362.777924,156.033630 
	C361.939850,155.469513 361.101776,154.905396 360.263702,154.341278 
	C359.825073,155.531677 358.959961,156.743332 359.018066,157.908997 
	C359.357635,164.722763 359.941803,171.523941 360.377899,178.333572 
	C360.498627,180.218811 360.396240,182.118347 360.396240,185.497971 
	C358.022217,183.418747 356.829895,182.374481 355.341980,181.151962 
M341.792725,159.582916 
	C337.025421,157.565491 332.794464,158.303650 329.008667,162.227844 
	C335.339142,159.771667 341.141754,160.885727 346.595001,165.044708 
	C346.822083,164.462402 347.049133,163.880112 347.276215,163.297806 
	C345.678986,162.164917 344.081757,161.032028 341.792725,159.582916 
z"/>
<path fill="#787878" opacity="1.000000" stroke="none" 
	d="
M399.158936,164.778015 
	C395.527374,159.721008 392.534882,154.164185 388.830811,149.131088 
	C383.433929,141.797821 379.810852,141.193283 371.893402,145.498642 
	C367.340118,147.974640 362.681488,149.157761 357.300537,147.228333 
	C361.590302,144.467194 366.323517,142.261307 370.700134,139.491882 
	C378.243378,134.718643 381.981140,134.739410 388.345856,140.912292 
	C391.664886,144.131287 394.556732,147.795197 397.592682,151.300461 
	C401.041748,155.282700 400.220154,159.911880 399.158936,164.778015 
z"/>
<path fill="#C6C8CB" opacity="1.000000" stroke="none" 
	d="
M494.022949,392.033630 
	C499.361298,391.080261 504.647217,389.804840 510.007599,389.254395 
	C512.119202,389.037567 514.949036,389.855927 516.441895,391.269470 
	C517.896973,392.647278 518.983582,395.581970 518.581726,397.484589 
	C517.950012,400.475433 515.407532,399.160309 513.299744,398.423218 
	C503.523834,395.004608 496.288971,400.425385 497.685059,410.027222 
	C498.350555,414.604187 502.034485,418.089508 506.566437,417.800629 
	C507.854919,417.718506 509.036438,415.957214 510.267029,414.966003 
	C509.276276,414.006226 508.324432,412.286133 507.287262,412.233032 
	C504.478119,412.089233 503.332397,410.878296 503.385254,408.256622 
	C503.441986,405.440338 504.825897,404.022827 507.748932,404.038940 
	C522.668030,404.121216 520.739380,402.559296 520.812866,415.992188 
	C520.850037,422.784332 519.610474,424.586700 512.875610,425.596619 
	C508.987946,426.179596 504.844055,426.229675 500.982910,425.557709 
	C493.945099,424.332977 488.703888,420.397827 486.873657,413.119476 
	C484.803528,404.887421 487.217560,398.034485 493.948914,392.370422 
	C494.061066,392.051758 494.000336,392.001831 494.022949,392.033630 
z"/>
<path fill="#FAFAFA" opacity="1.000000" stroke="none" 
	d="
M358.615967,262.053650 
	C361.114685,255.890915 363.911407,249.943695 370.125885,246.101685 
	C375.559326,243.541748 380.708801,242.698105 385.856995,247.237488 
	C381.338257,251.021591 382.220825,255.285812 383.793915,260.003448 
	C385.190155,264.190765 385.666290,268.684906 386.477478,273.456726 
	C385.940308,274.517395 385.474213,275.164917 384.899841,276.026520 
	C383.581451,276.009094 382.371307,275.777618 380.870361,274.999969 
	C380.065308,274.638031 379.551056,274.822266 379.036774,275.006531 
	C378.510986,277.692139 379.466400,281.371765 374.421387,281.330750 
	C373.862518,281.278259 373.701355,281.186554 373.054932,280.820709 
	C371.903107,279.718811 371.236511,278.891113 370.511719,277.800171 
	C369.991272,277.695282 369.529053,277.853577 368.972656,278.322937 
	C368.588440,279.428986 368.298431,280.224030 368.008392,281.019073 
	C367.823792,281.033783 367.639160,281.048492 366.840576,281.137939 
	C365.488617,281.164642 364.750671,281.116516 364.012695,281.068420 
	C362.348846,279.160400 360.684998,277.252380 358.838776,275.097504 
	C358.540039,271.196686 358.423645,267.542725 358.466858,263.221466 
	C358.623016,262.387360 358.619507,262.220520 358.615967,262.053650 
z"/>
<path fill="#767676" opacity="1.000000" stroke="none" 
	d="
M393.998474,242.998001 
	C393.907684,243.032104 393.818420,243.068207 393.866547,243.053741 
	C394.003937,243.003159 394.000000,243.000000 393.998474,242.998001 
z"/>
<path fill="#656565" opacity="1.000000" stroke="none" 
	d="
M370.569916,278.063416 
	C371.236511,278.891113 371.903107,279.718811 372.778625,280.789215 
	C371.480194,281.206085 369.972809,281.380310 368.236938,281.286804 
	C368.298431,280.224030 368.588440,279.428986 369.223267,278.331055 
	C369.902039,278.039917 370.235962,278.051666 370.569916,278.063416 
z"/>
<path fill="#656565" opacity="1.000000" stroke="none" 
	d="
M364.059174,281.384949 
	C364.750671,281.116516 365.488617,281.164642 366.593079,281.264191 
	C366.008270,281.444275 365.056976,281.572876 364.059174,281.384949 
z"/>
<path fill="#767676" opacity="1.000000" stroke="none" 
	d="
M355.979309,262.318298 
	C355.998962,263.699310 355.894287,264.909332 355.789642,266.119324 
	C355.421936,266.101379 355.054199,266.083405 354.686493,266.065460 
	C354.771118,264.761139 354.855743,263.456818 355.213318,262.046509 
	C355.486237,261.940552 355.855011,262.147308 355.979309,262.318298 
z"/>
<path fill="#767676" opacity="1.000000" stroke="none" 
	d="
M358.204987,262.079895 
	C358.619507,262.220520 358.623016,262.387360 358.483582,262.758911 
	C358.017487,262.862122 357.694275,262.760529 357.184418,262.487854 
	C357.263153,262.246521 357.528595,262.176331 358.204987,262.079895 
z"/>
<path fill="#E7E7E7" opacity="1.000000" stroke="none" 
	d="
M409.315887,182.051529 
	C409.246674,183.201370 408.938019,184.120255 408.629364,185.039154 
	C404.116943,182.433777 404.490295,186.406464 403.324524,188.928558 
	C402.578827,188.221619 401.795563,187.325089 401.798676,186.431290 
	C401.807800,183.802078 402.128876,181.173981 402.327759,178.545441 
	C404.577332,179.637161 406.826874,180.728867 409.315887,182.051529 
z"/>
<path fill="#767676" opacity="1.000000" stroke="none" 
	d="
M379.314606,275.009705 
	C379.551056,274.822266 380.065308,274.638031 380.641174,274.749878 
	C380.332703,275.034943 379.962555,275.023895 379.314606,275.009705 
z"/>
<path fill="#F8F8F8" opacity="1.000000" stroke="none" 
	d="
M373.129639,240.698669 
	C372.893921,240.954361 372.682343,240.869751 372.649109,240.739624 
	C370.558807,232.552567 370.563721,232.558792 362.942780,236.708328 
	C362.083862,237.175995 361.156219,237.517426 358.893219,238.527802 
	C362.466766,231.951584 365.385468,225.787003 361.643188,220.050476 
	C358.405457,215.087387 353.571808,211.165390 350.135925,207.518112 
	C352.454529,204.183136 355.317505,200.065140 358.218445,195.585815 
	C358.473206,195.828491 358.948883,196.470200 358.867249,197.030731 
	C357.919708,203.536209 359.991394,208.967010 364.085541,214.011520 
	C365.549255,215.814987 365.872864,218.543823 366.754791,220.954071 
	C366.905121,220.999130 367.261566,221.240738 367.521332,221.162247 
	C369.437378,220.583328 371.334137,219.940567 373.236969,219.317871 
	C374.175262,222.459793 375.918335,225.619919 375.847748,228.739014 
	C375.759857,232.622757 374.175232,236.472641 373.129639,240.698669 
z"/>
<path fill="#656565" opacity="1.000000" stroke="none" 
	d="
M362.436371,156.114532 
	C364.763153,166.944351 366.626282,177.879379 368.792084,188.754135 
	C369.693512,193.280273 371.240265,197.677887 372.576965,202.508011 
	C371.363312,201.464203 369.261108,200.223251 368.904144,198.598831 
	C367.028381,190.061951 365.585968,181.429596 364.009399,172.827393 
	C363.176605,168.283310 362.319641,163.742065 361.609772,159.178360 
	C361.462585,158.232101 361.917389,157.192184 362.436371,156.114532 
z"/>
<path fill="#656565" opacity="1.000000" stroke="none" 
	d="
M373.550171,205.080811 
	C374.576050,206.024567 375.303040,207.022385 376.153442,208.300873 
	C374.001984,209.379211 372.889404,208.111740 373.550171,205.080811 
z"/>
<path fill="#656565" opacity="1.000000" stroke="none" 
	d="
M378.055542,210.961990 
	C379.251709,211.619247 380.153015,212.483154 381.221405,213.624176 
	C379.668732,213.668152 376.947968,214.763916 378.055542,210.961990 
z"/>
<path fill="#656565" opacity="1.000000" stroke="none" 
	d="
M384.044586,215.352280 
	C384.627655,215.072647 385.247894,215.103195 386.029663,215.408844 
	C385.488037,215.676788 384.784882,215.669617 384.044586,215.352280 
z"/>
<path fill="#656565" opacity="1.000000" stroke="none" 
	d="
M382.184937,214.289841 
	C382.376190,214.179245 382.731262,214.299591 383.243103,214.666351 
	C383.049469,214.782104 382.699127,214.651443 382.184937,214.289841 
z"/>
<path fill="#C6C8CB" opacity="1.000000" stroke="none" 
	d="
M291.687012,167.391022 
	C292.649200,170.317261 293.238922,173.080292 293.482666,175.899460 
	C292.781342,170.731247 289.472015,168.236160 284.456879,167.317169 
	C284.616089,166.917862 284.775269,166.518555 284.934479,166.119247 
	C287.061157,166.488770 289.187866,166.858292 291.687012,167.391022 
z"/>
<path fill="#717171" opacity="1.000000" stroke="none" 
	d="
M304.090576,154.882935 
	C304.374573,156.998734 304.610962,159.188446 304.875580,161.639481 
	C299.419006,161.898758 298.172424,159.407394 299.405670,154.604202 
	C300.681305,154.711716 302.038269,154.826096 303.792908,154.900879 
	C304.190582,154.861267 304.042999,154.956848 304.090576,154.882935 
z"/>
<path fill="#787878" opacity="1.000000" stroke="none" 
	d="
M296.606384,167.534683 
	C297.054779,167.650665 297.330170,167.933853 297.583771,168.235336 
	C297.590759,168.243652 297.364166,168.448471 297.246490,168.561646 
	C296.974426,168.275909 296.702393,167.990158 296.606384,167.534683 
z"/>
<path fill="#000000" opacity="1.000000" stroke="none" 
	d="
M444.903229,416.058929 
	C444.527191,412.631226 443.756226,409.195465 443.941254,405.812012 
	C444.151581,401.966003 446.223236,399.435364 450.675720,399.574158 
	C455.207306,399.715424 456.037292,402.685608 456.216217,406.237762 
	C456.307251,408.045502 456.378418,409.906525 456.062042,411.672424 
	C455.190460,416.537598 451.723846,417.958374 445.348572,416.104065 
	C444.952118,416.132477 444.930542,416.073975 444.903229,416.058929 
z"/>
<path fill="#959596" opacity="1.000000" stroke="none" 
	d="
M342.138611,159.741028 
	C344.081757,161.032028 345.678986,162.164917 347.276215,163.297806 
	C347.049133,163.880112 346.822083,164.462402 346.595001,165.044708 
	C341.141754,160.885727 335.339142,159.771667 329.008667,162.227844 
	C332.794464,158.303650 337.025421,157.565491 342.138611,159.741028 
z"/>
<path fill="#767676" opacity="1.000000" stroke="none" 
	d="
M370.511719,277.800171 
	C370.235962,278.051666 369.902039,278.039917 369.317444,278.020020 
	C369.529053,277.853577 369.991272,277.695282 370.511719,277.800171 
z"/>
</svg>